<svg width="1000" height="720" viewBox="0 0 1000 720" fill="none" xmlns="http://www.w3.org/2000/svg">
  <defs>
    <linearGradient id="bg" x1="0" y1="0" x2="1000" y2="720" gradientUnits="userSpaceOnUse">
      <stop stop-color="#5C7CFF"/>
      <stop offset="1" stop-color="#2A50D9"/>
    </linearGradient>
    <linearGradient id="card" x1="0" y1="0" x2="1" y2="1">
      <stop stop-color="#FFFFFF"/>
      <stop offset="1" stop-color="#EEF3FF"/>
    </linearGradient>
  </defs>
  <rect width="1000" height="720" rx="28" fill="url(#bg)"/>

  <!-- faux dashboard -->
  <rect x="110" y="110" width="780" height="500" rx="24" fill="url(#card)" />
  <rect x="152" y="156" width="180" height="416" rx="18" fill="#F4F6FF" />
  <rect x="360" y="156" width="490" height="64" rx="16" fill="#F4F6FF" />
  <rect x="360" y="242" width="490" height="330" rx="18" fill="#F8FAFF" />

  <rect x="178" y="190" width="128" height="14" rx="7" fill="#2A50D9" opacity="0.55"/>
  <rect x="178" y="224" width="92" height="12" rx="6" fill="#0B151D" opacity="0.35"/>
  <rect x="178" y="252" width="110" height="12" rx="6" fill="#0B151D" opacity="0.26"/>
  <rect x="178" y="280" width="120" height="12" rx="6" fill="#0B151D" opacity="0.22"/>

  <!-- route dots -->
  <circle cx="540" cy="408" r="8" fill="#00C950"/>
  <circle cx="650" cy="336" r="8" fill="#00C950" opacity="0.9"/>
  <circle cx="738" cy="466" r="8" fill="#00C950" opacity="0.85"/>
  <path d="M540 408C590 370 620 350 650 336C690 318 710 392 738 466" stroke="#00C950" stroke-width="4" stroke-linecap="round" opacity="0.9"/>

  <!-- top right pills -->
  <rect x="686" y="174" width="94" height="28" rx="14" fill="#00C950" opacity="0.9"/>
  <rect x="790" y="174" width="58" height="28" rx="14" fill="#2A50D9" opacity="0.28"/>

  <rect width="1000" height="720" rx="28" fill="#000000" opacity="0.08"/>
</svg>

