<svg width="1400" height="900" viewBox="0 0 1400 900" fill="none" xmlns="http://www.w3.org/2000/svg">
  <defs>
    <linearGradient id="g" x1="0" y1="0" x2="1400" y2="900" gradientUnits="userSpaceOnUse">
      <stop stop-color="#DDF6E8" />
      <stop offset="0.5" stop-color="#93E8B7" />
      <stop offset="1" stop-color="#2E9E64" />
    </linearGradient>
    <linearGradient id="asphalt" x1="0" y1="0" x2="1" y2="1">
      <stop stop-color="#2B2B2B" />
      <stop offset="1" stop-color="#161616" />
    </linearGradient>
    <filter id="shadow" x="-40" y="-40" width="1480" height="980" color-interpolation-filters="sRGB">
      <feGaussianBlur stdDeviation="16" />
    </filter>
  </defs>

  <rect width="1400" height="900" rx="28" fill="url(#g)" />

  <!-- fields -->
  <path d="M-40 620C200 520 390 500 560 540C730 580 870 640 1040 620C1210 600 1330 560 1440 520V940H-40V620Z" fill="#2A8C57" opacity="0.6"/>
  <path d="M-40 680C180 600 420 585 620 640C820 695 1020 740 1220 700C1320 680 1390 650 1440 630V940H-40V680Z" fill="#1F6D44" opacity="0.55"/>

  <!-- road -->
  <g filter="url(#shadow)" opacity="0.95">
    <path d="M640 80H760L980 900H420L640 80Z" fill="url(#asphalt)" />
  </g>
  <path d="M698 140H702L858 900H842L698 140Z" fill="#F6F6F6" opacity="0.85"/>
  <path d="M720 140H724L884 900H868L720 140Z" fill="#F6F6F6" opacity="0.85"/>

  <!-- small "truck" -->
  <g transform="translate(664 360)" opacity="0.95">
    <rect x="0" y="20" width="120" height="52" rx="10" fill="#0B151D"/>
    <rect x="74" y="0" width="46" height="72" rx="10" fill="#081017"/>
    <circle cx="28" cy="76" r="12" fill="#0A0F14"/>
    <circle cx="92" cy="76" r="12" fill="#0A0F14"/>
    <rect x="12" y="36" width="52" height="10" rx="5" fill="#00C950" opacity="0.75"/>
  </g>

  <rect width="1400" height="900" rx="28" fill="#000000" opacity="0.08"/>
</svg>

